<svg width="122.88" height="87.46" xmlns="http://www.w3.org/2000/svg">

 <g>
  <title>background</title>
  <rect fill="none" id="canvas_background" height="514" width="514" y="-1" x="-1"/>
 </g>
 <g>
  <title>Layer 1</title>
  <g id="svg_1">
   <path fill="#5e5e5e" id="svg_2" d="m2.17,87.46c-1.2,0 -2.17,-0.91 -2.17,-2.04c0,-1.13 0.97,-2.04 2.17,-2.04l9.16,0l0,-62.79c0,-0.65 0.27,-1.25 0.7,-1.68c0.44,-0.44 1.03,-0.71 1.68,-0.71l13.02,0c0.66,0 1.25,0.27 1.68,0.71c0.43,0.43 0.7,1.03 0.7,1.68l0,62.78l9.69,0l0,-44.57c0,-0.65 0.27,-1.24 0.7,-1.68l0,0l0,0l0,0c0.43,-0.43 1.03,-0.7 1.67,-0.7l13.02,0c0.67,0 1.26,0.27 1.68,0.7c0.43,0.43 0.7,1.04 0.7,1.68l0,44.57l9.69,0l0,-80.99c0,-0.65 0.27,-1.24 0.7,-1.68l0,0l0,0c0.46,-0.43 1.05,-0.7 1.71,-0.7l13.02,0c0.66,0 1.25,0.27 1.68,0.7l0,0c0.43,0.43 0.7,1.04 0.7,1.68l0,80.99l9.69,0l0,-57.57c0,-0.65 0.27,-1.25 0.7,-1.68l0,0c0.43,-0.43 1.03,-0.7 1.69,-0.7l13.02,0c0.66,0 1.26,0.27 1.68,0.7c0.43,0.43 0.7,1.03 0.7,1.68l0,57.58l9.16,0c1.2,0 2.17,0.91 2.17,2.04c0,1.13 -0.97,2.04 -2.17,2.04l-11.27,0c-0.02,0 -0.04,0 -0.06,0l-13.44,0c-0.02,0 -0.04,0 -0.06,0l-13.92,0c-0.02,0 -0.04,0 -0.06,0l-13.44,0c-0.02,0 -0.04,0 -0.06,0l-13.91,0c-0.02,0 -0.04,0 -0.06,0l-13.45,0c-0.02,0 -0.04,0 -0.06,0l-13.92,0l-0.06,0l-13.44,0l-0.06,0l-11.27,0l0,0zm22.6,-64.91l-9.1,0l0,60.56l9.1,0l0,-60.56l0,0zm27.48,18.21l-9.1,0l0,42.35l9.1,0l0,-42.35l0,0zm27.48,-36.42l-9.1,0l0,78.77l9.1,0l0,-78.77l0,0zm27.47,23.42l-9.1,0l0,55.36l9.1,0l0,-55.36l0,0z"/>
  </g>
 </g>
</svg>