<svg width="122.9" height="85.6" xmlns="http://www.w3.org/2000/svg">
 <style type="text/css">.st0{fill-rule:evenodd;clip-rule:evenodd;}</style>

 <g>
  <title>background</title>
  <rect fill="none" id="canvas_background" height="514" width="514" y="-1" x="-1"/>
 </g>
 <g>
  <title>Layer 1</title>
  <g id="svg_1">
   <path fill="#5e5e5e" id="svg_2" d="m7.5,0l107.9,0c4.1,0 7.5,3.4 7.5,7.5l0,70.6c0,4.1 -3.4,7.5 -7.5,7.5l-107.9,0c-4.1,0 -7.5,-3.4 -7.5,-7.5l0,-70.6c0,-4.1 3.4,-7.5 7.5,-7.5l0,0zm62.4,63.3l28.5,0l0,4l-28.5,0l0,-4l0,0zm0,-10.2l39.1,0l0,4l-39.1,0l0,-4l0,0zm22.2,-18.1l5.6,0c0.3,0 0.5,0.2 0.5,0.5l0,11c0,0.3 -0.2,0.5 -0.5,0.5l-5.6,0c-0.3,0 -0.5,-0.2 -0.5,-0.5l0,-11c0,-0.2 0.2,-0.5 0.5,-0.5l0,0l0,0zm-21.6,-6.7l5.6,0c0.3,0 0.5,0.2 0.5,0.5l0,17.8c0,0.3 -0.2,0.5 -0.5,0.5l-5.6,0c-0.3,0 -0.5,-0.2 -0.5,-0.5l0,-17.8c-0.1,-0.3 0.2,-0.5 0.5,-0.5l0,0l0,0l0,0zm10.8,-3.8l5.6,0c0.3,0 0.5,0.2 0.5,0.5l0,21.6c0,0.3 -0.2,0.5 -0.5,0.5l-5.6,0c-0.3,0 -0.5,-0.2 -0.5,-0.5l0,-21.6c0,-0.3 0.2,-0.5 0.5,-0.5l0,0l0,0zm-42,23.7l17,0.3c0,6.1 -3,11.7 -8,15.1l-9,-15.4l0,0l0,0zm-1.7,-2.9l-0.2,-19.8l0,-1.3l1.3,0.1l0,0l0,0c1.6,0.1 3.2,0.4 4.7,0.8c1.5,0.4 2.9,1 4.3,1.7c6.9,3.6 11.7,10.8 12.1,19l0.1,1.3l-1.3,0l-19.7,-0.6l-1.1,0l-0.2,-1.2l0,0l0,0zm2.2,-18.6l0.2,17.4l17.3,0.5c-0.7,-6.8 -4.9,-12.7 -10.7,-15.8c-1.2,-0.6 -2.5,-1.1 -3.8,-1.5c-1.1,-0.2 -2,-0.4 -3,-0.6l0,0l0,0zm-3.9,20.5l9.7,16.8c-3,1.7 -6.3,2.6 -9.7,2.6c-10.7,0 -19.4,-8.7 -19.4,-19.4c0,-10.4 8.2,-19 18.6,-19.4l0.8,19.4l0,0l0,0zm79.7,-33.1l-108.4,0l0,64.4l108.4,0l0,-64.4l0,0l0,0z" class="st0"/>
  </g>
 </g>
</svg>