<svg width="115.28" height="122.88" xmlns="http://www.w3.org/2000/svg">
 <style type="text/css">.st0{fill-rule:evenodd;clip-rule:evenodd;}</style>

 <g>
  <title>background</title>
  <rect fill="none" id="canvas_background" height="514" width="514" y="-1" x="-1"/>
 </g>
 <g>
  <title>Layer 1</title>
  <g id="svg_1">
   <path fill="#5e5e5e" id="svg_2" d="m25.38,57l64.88,0l0,-19.66l-20.67,0c-2.17,0 -5.19,-1.17 -6.62,-2.6c-1.43,-1.43 -2.3,-4.01 -2.3,-6.17l0,-20.93l0,0l-52.52,0c-0.18,0 -0.32,0.09 -0.41,0.18c-0.15,0.1 -0.19,0.23 -0.19,0.42l0,106.45c0,0.14 0.09,0.32 0.18,0.41c0.09,0.14 0.28,0.18 0.41,0.18c22.78,0 58.09,0 81.51,0c0.18,0 0.17,-0.09 0.27,-0.18c0.14,-0.09 0.33,-0.28 0.33,-0.41l0,-11.16l-64.87,0c-4.14,0 -7.56,-3.4 -7.56,-7.56l0,-31.42c0,-4.15 3.4,-7.55 7.56,-7.55l0,0zm4.19,26.94l7.12,-0.45c0.15,1.15 0.47,2.03 0.94,2.63c0.77,0.98 1.87,1.47 3.31,1.47c1.07,0 1.89,-0.25 2.47,-0.75c0.58,-0.5 0.87,-1.08 0.87,-1.75c0,-0.63 -0.27,-1.19 -0.82,-1.69c-0.55,-0.5 -1.82,-0.96 -3.83,-1.41c-3.29,-0.73 -5.62,-1.72 -7.03,-2.94c-1.41,-1.22 -2.12,-2.78 -2.12,-4.68c0,-1.24 0.36,-2.42 1.08,-3.52c0.72,-1.11 1.81,-1.98 3.26,-2.61c1.45,-0.63 3.44,-0.95 5.96,-0.95c3.1,0 5.46,0.58 7.09,1.73c1.63,1.15 2.59,2.99 2.9,5.51l-7.05,0.42c-0.19,-1.1 -0.58,-1.9 -1.18,-2.4c-0.6,-0.5 -1.43,-0.75 -2.49,-0.75c-0.87,0 -1.53,0.19 -1.97,0.55c-0.44,0.37 -0.66,0.82 -0.66,1.35c0,0.38 0.18,0.73 0.54,1.04c0.34,0.32 1.18,0.62 2.5,0.89c3.28,0.71 5.62,1.42 7.03,2.15c1.42,0.72 2.45,1.62 3.09,2.69c0.64,1.07 0.97,2.26 0.97,3.59c0,1.55 -0.43,2.99 -1.29,4.3c-0.86,1.31 -2.06,2.31 -3.61,2.99c-1.54,0.68 -3.48,1.02 -5.83,1.02c-4.12,0 -6.98,-0.8 -8.57,-2.38c-1.57,-1.58 -2.47,-3.6 -2.68,-6.05l0,0zm46.81,4.47c0.93,0.65 1.54,1.06 1.83,1.23c0.42,0.24 1.01,0.53 1.73,0.85l-2.07,4.2c-1.04,-0.51 -2.08,-1.11 -3.11,-1.81c-1.03,-0.7 -1.75,-1.23 -2.15,-1.58c-1.65,0.72 -3.73,1.08 -6.22,1.08c-3.69,0 -6.6,-0.96 -8.73,-2.88c-2.52,-2.27 -3.78,-5.46 -3.78,-9.57c0,-3.99 1.1,-7.09 3.3,-9.31c2.2,-2.21 5.27,-3.32 9.23,-3.32c4.03,0 7.13,1.08 9.32,3.24c2.19,2.16 3.29,5.25 3.29,9.27c0,3.59 -0.88,6.45 -2.64,8.6l0,0zm-5.75,-3.85c0.6,-1.07 0.9,-2.67 0.9,-4.79c0,-2.45 -0.46,-4.19 -1.37,-5.24c-0.92,-1.04 -2.17,-1.57 -3.77,-1.57c-1.5,0 -2.71,0.54 -3.63,1.6c-0.93,1.07 -1.39,2.74 -1.39,5.01c0,2.65 0.45,4.51 1.36,5.57c0.91,1.07 2.15,1.6 3.73,1.6c0.51,0 0.99,-0.05 1.44,-0.15c-0.63,-0.61 -1.63,-1.18 -2.99,-1.72l1.17,-2.69c0.67,0.12 1.19,0.27 1.55,0.45c0.37,0.17 1.1,0.64 2.17,1.39c0.26,0.18 0.53,0.36 0.83,0.54l0,0zm11.92,-16.85l7.49,0l0,18.29l11.72,0l0,5.96l-19.21,0l0,-24.25l0,0zm15.24,-10.71l9.93,0c4.16,0 7.56,3.41 7.56,7.56l0,31.42c0,4.15 -3.41,7.56 -7.56,7.56l-9.93,0l0,13.55c0,1.61 -0.65,3.04 -1.7,4.1c-1.06,1.06 -2.49,1.7 -4.1,1.7c-29.44,0 -56.59,0 -86.18,0c-1.61,0 -3.04,-0.64 -4.1,-1.7c-1.06,-1.06 -1.7,-2.49 -1.7,-4.1l0,-111.24c0,-1.61 0.65,-3.04 1.7,-4.1c1.06,-1.06 2.53,-1.7 4.1,-1.7l58.72,0c0.13,-0.05 0.27,-0.05 0.41,-0.05c0.64,0 1.29,0.28 1.75,0.69l0.09,0c0.09,0.05 0.14,0.09 0.23,0.18l29.99,30.36c0.51,0.51 0.88,1.2 0.88,1.98c0,0.23 -0.05,0.41 -0.09,0.65l0,23.14l0,0zm-30.27,-29.03l0,-19.03l21.43,21.7l-18.76,0c-0.74,0 -1.38,-0.32 -1.89,-0.78c-0.46,-0.46 -0.78,-1.15 -0.78,-1.89l0,0z" class="st0"/>
  </g>
 </g>
</svg>